<svg data-v-0dd9719b="" version="1.0" xmlns="http://www.w3.org/2000/svg" xmlns:xlink="http://www.w3.org/1999/xlink" width="100%" height="100%" viewBox="0 0 340.000000 250.000000" preserveAspectRatio="xMidYMid meet" color-interpolation-filters="sRGB" style="margin: auto;"> <rect data-v-0dd9719b="" x="0" y="0" width="100%" height="100%" fill="#ffffff" fill-opacity="1" class="background"></rect> <rect data-v-0dd9719b="" x="0" y="0" width="100%" height="100%" fill="url(#watermark)" fill-opacity="1" class="watermarklayer"></rect> <g data-v-0dd9719b="" fill="#020f40" class="icon-text-wrapper icon-svg-group iconsvg" transform="translate(76.91000366210938,68.39661026000977)"><g class="iconsvg-imagesvg" transform="translate(63.089996337890625,0)"><g><rect fill="#020f40" fill-opacity="0" stroke-width="2" x="0" y="0" width="60" height="55.196776508251915" class="image-rect"></rect> <svg x="0" y="0" width="60" height="55.196776508251915" filtersec="colorsb1072067985" class="image-svg-svg primary" style="overflow: visible;"><svg xmlns="http://www.w3.org/2000/svg" viewBox="0 0 115.80000305175781 106.52999877929688"><g fill-rule="evenodd"><path fill="#e69138" d="M115.8 81.53L97.23 49.38l-18.8-1.43 13.42 23.26-68.15-5.16 10.28 17.79 42.19 3.2-30.26 17.47 26.6 2.02 43.29-25z"></path><path fill="#020f40" d="M0 24.99l18.56 32.16 18.81 1.42-13.43-23.25 68.15 5.16-10.27-17.79-42.2-3.2L69.89 2.02 43.29 0 0 24.99z"></path></g></svg></svg> <!----></g></g> <g transform="translate(0,62.19677734375)"><g data-gra="path-name" fill-rule="" class="tp-name iconsvg-namesvg"><g transform="scale(1)"><g><path d="M32.99-11.63L37.44-4.31Q34.51-1.79 30.88-0.44 27.25 0.91 23.35 0.91L23.35 0.91Q20.36 0.91 17.59 0.13 14.82-0.64 12.41-2.07 9.99-3.49 8-5.48 6.01-7.47 4.58-9.89 3.16-12.3 2.39-15.07 1.61-17.84 1.61-20.83L1.61-20.83Q1.61-23.82 2.39-26.6 3.16-29.38 4.58-31.8 6.01-34.22 8-36.21 9.99-38.2 12.41-39.62 14.82-41.04 17.59-41.82 20.36-42.6 23.35-42.6L23.35-42.6Q27.25-42.6 30.88-41.26 34.51-39.93 37.44-37.38L37.44-37.38 32.99-30.06Q31.14-32.05 28.62-33.12 26.1-34.19 23.35-34.19L23.35-34.19Q20.57-34.19 18.13-33.13 15.7-32.08 13.89-30.28 12.07-28.48 11.02-26.03 9.96-23.58 9.96-20.83L9.96-20.83Q9.96-18.08 11.02-15.66 12.07-13.24 13.89-11.43 15.7-9.61 18.13-8.55 20.57-7.5 23.35-7.5L23.35-7.5Q26.1-7.5 28.62-8.57 31.14-9.64 32.99-11.63L32.99-11.63ZM70.14-1.32L76.64 8.41 67.09 8.41 62.05 0.85Q61.64 0.91 61.27 0.91 60.91 0.91 60.56 0.91L60.56 0.91Q57.57 0.91 54.8 0.13 52.03-0.64 49.61-2.07 47.2-3.49 45.21-5.48 43.21-7.47 41.79-9.89 40.37-12.3 39.59-15.07 38.82-17.84 38.82-20.83L38.82-20.83Q38.82-23.82 39.59-26.6 40.37-29.38 41.79-31.79 43.21-34.19 45.21-36.18 47.2-38.17 49.61-39.58 52.03-40.99 54.8-41.76 57.57-42.54 60.56-42.54L60.56-42.54Q63.54-42.54 66.33-41.76 69.11-40.99 71.51-39.58 73.92-38.17 75.91-36.18 77.9-34.19 79.31-31.79 80.71-29.38 81.49-26.6 82.27-23.82 82.27-20.83L82.27-20.83Q82.27-17.72 81.4-14.79 80.54-11.87 78.96-9.33 77.37-6.8 75.13-4.75 72.89-2.7 70.14-1.32L70.14-1.32ZM73.92-20.83L73.92-20.83Q73.92-23.58 72.86-26.03 71.81-28.48 70-30.28 68.2-32.08 65.76-33.13 63.31-34.19 60.56-34.19L60.56-34.19Q57.77-34.19 55.34-33.13 52.91-32.08 51.09-30.28 49.28-28.48 48.22-26.03 47.17-23.58 47.17-20.83L47.17-20.83Q47.17-18.08 48.22-15.66 49.28-13.24 51.09-11.43 52.91-9.61 55.34-8.55 57.77-7.5 60.56-7.5L60.56-7.5Q63.31-7.5 65.76-8.55 68.2-9.61 70-11.43 71.81-13.24 72.86-15.66 73.92-18.08 73.92-20.83ZM121.38-12.6L121.38-12.6Q121.38-9.99 120.38-7.71 119.38-5.42 117.67-3.71 115.96-1.99 113.67-1 111.39 0 108.78 0L108.78 0 87.77 0 87.77-42.01 108.78-42.01Q111.39-42.01 113.67-41.02 115.96-40.02 117.67-38.31 119.38-36.59 120.38-34.31 121.38-32.02 121.38-29.41L121.38-29.41Q121.38-28.24 121.05-27.01 120.73-25.78 120.15-24.64 119.56-23.5 118.74-22.56 117.92-21.62 116.92-21.01L116.92-21.01Q117.95-20.45 118.77-19.5 119.59-18.54 120.18-17.4 120.76-16.26 121.07-15.01 121.38-13.77 121.38-12.6ZM96.18-16.79L96.18-8.41 108.78-8.41Q109.66-8.41 110.42-8.73 111.18-9.05 111.75-9.62 112.32-10.2 112.65-10.96 112.97-11.72 112.97-12.6L112.97-12.6Q112.97-13.48 112.65-14.24 112.32-15 111.75-15.57 111.18-16.14 110.42-16.46 109.66-16.79 108.78-16.79L108.78-16.79 96.18-16.79ZM96.18-33.6L96.18-25.2 108.78-25.2Q109.66-25.2 110.42-25.52 111.18-25.84 111.75-26.41 112.32-26.98 112.65-27.76 112.97-28.54 112.97-29.41L112.97-29.41Q112.97-30.29 112.65-31.05 112.32-31.82 111.75-32.39 111.18-32.96 110.42-33.28 109.66-33.6 108.78-33.6L108.78-33.6 96.18-33.6ZM152.58 0L149.94-3.66Q148.97-2.78 147.88-2.01 146.78-1.23 145.58-0.66 144.38-0.09 143.1 0.25 141.83 0.59 140.51 0.59L140.51 0.59Q137.61 0.59 135.06-0.44 132.51-1.46 130.59-3.35 128.67-5.24 127.57-7.95 126.47-10.66 126.47-14.03L126.47-14.03 126.47-31.38 134.44-31.38 134.44-14.03Q134.44-12.45 134.93-11.21 135.41-9.96 136.23-9.11 137.05-8.26 138.15-7.82 139.25-7.38 140.51-7.38L140.51-7.38Q141.74-7.38 142.84-7.95 143.94-8.53 144.76-9.46 145.58-10.4 146.04-11.59 146.51-12.77 146.51-14.03L146.51-14.03 146.51-31.38 154.51-31.38 154.51 0 152.58 0ZM177.83 0L177.83 0 159.55 0 159.55-7.97 177.83-7.97Q178.65-7.97 179.24-8.55 179.82-9.14 179.82-9.96L179.82-9.96Q179.82-10.81 179.24-11.07 178.65-11.34 177.83-11.34L177.83-11.34 169.51-11.34Q167.43-11.34 165.62-12.13 163.8-12.92 162.45-14.28 161.1-15.64 160.33-17.46 159.55-19.28 159.55-21.36L159.55-21.36Q159.55-23.44 160.33-25.25 161.1-27.07 162.45-28.42 163.8-29.77 165.62-30.54 167.43-31.32 169.51-31.32L169.51-31.32 185.71-31.32 185.71-23.35 169.51-23.35Q168.69-23.35 168.11-22.76 167.52-22.18 167.52-21.36L167.52-21.36Q167.52-20.51 168.11-19.91 168.69-19.31 169.51-19.31L169.51-19.31 177.83-19.31Q179.88-19.31 181.7-18.62 183.52-17.93 184.86-16.7 186.21-15.47 187-13.74 187.79-12.01 187.79-9.96L187.79-9.96Q187.79-7.88 187-6.08 186.21-4.28 184.86-2.92 183.52-1.55 181.7-0.78 179.88 0 177.83 0Z" transform="translate(-1.6100000143051147, 42.599998474121094)"></path></g> <!----> <!----> <!----> <!----> <!----> <!----> <!----></g></g> <!----></g></g><defs v-gra="od"></defs></svg>